<?xml version="1.0" encoding="UTF-8"?><svg id="Calque_3" xmlns="http://www.w3.org/2000/svg" xmlns:xlink="http://www.w3.org/1999/xlink" viewBox="0 0 236.94 306.89"><defs><style>.cls-1{fill:url(#Dégradé_sans_nom_119);}.cls-2{fill:url(#Dégradé_sans_nom_119-2);}.cls-3{fill:url(#Dégradé_sans_nom_119-3);}</style><linearGradient id="Dégradé_sans_nom_119" x1="63.78" y1="137.58" x2="174.94" y2="137.58" gradientUnits="userSpaceOnUse"><stop offset=".05" stop-color="#e7cd79"/><stop offset=".21" stop-color="#a98640"/><stop offset=".49" stop-color="#ac8b45"/><stop offset="1" stop-color="#e7cd79"/></linearGradient><linearGradient id="Dégradé_sans_nom_119-2" x1="84.34" y1="163.82" x2="162.64" y2="163.82" xlink:href="#Dégradé_sans_nom_119"/><linearGradient id="Dégradé_sans_nom_119-3" x1="51.19" y1="200.86" x2="185.75" y2="200.86" xlink:href="#Dégradé_sans_nom_119"/></defs><path class="cls-1" d="m110.81,225.41s5.02-17.7,2.55-29.79c0,0-1.96-18.3-22.24-34.98,0,0-19.1-14.61-15.21-30.43,3.16-12.8,7.4-22.47,43.44-64.64,0,0,31.45,32.68,40.05,54.89,0,0,6.64,16.6-.94,27.66l4.17,12.43s13.11-8.09,12.26-25.19c0,0,1.87-29.15-55.23-85.62l-.6.43s-38.3,38.89-49.87,61.87c0,0-14.34,26.47,3.66,46.64l12,12s19.06,15.4,16.77,36c0,0-9.45-7.23-12.09-13.36-2.64-6.13-2.38-9.96-2.21-14.38l-10.3-9.45s-2.55,10.98-.34,20.17c0,0,3.4,21.53,33.96,35.32"/><path class="cls-2" d="m119.58,103.33s-26.55,24.59-35.23,44.5l8.55,8.9s19.63-32.55,26.68-37.12c0,0,34.47,35.62,30.51,62.68,0,0,0,14.81-13.53,23.74,0,0-1.4-15.96,9.57-27.45,0,0-.51-11.23-3.45-13.91,0,0-25.15,18.51-16.09,59.62,0,0,85.58-26.06-7.02-120.97Z"/><path class="cls-3" d="m58.13,137.16s-9.62,24.77-6.21,44.26c0,0,2.47,28.43,21.19,45.36,0,0,17.36,18.21,39.74,23.23v14.55h12.43v-14.47s21.19-5.19,40.85-24.68c0,0,33.23-32.51,13.19-87.83,0,0-1.91,12.68-6.64,18.17,0,0,8.68,40.47-17.49,63.32,0,0-14.55,15.27-36.14,20.3,0,0-23.35-6-38.16-21.57,0,0-23.87-22.34-15.57-62.81,0,0-4.47-4.21-7.19-17.83Z"/></svg>